<?xml version="1.0" encoding="UTF-8"?>
<svg width="24px" height="24px" viewBox="0 0 24 24" version="1.1" xmlns="http://www.w3.org/2000/svg" xmlns:xlink="http://www.w3.org/1999/xlink">
    <g stroke="none" stroke-width="1" fill="none" fill-rule="evenodd">
        <path d="M14.7928932,11.5 L17.1464466,9.14644661 C17.3417088,8.95118446 17.3417088,8.63461894 17.1464466,8.43935679 L15.5606432,6.85355339 C15.3653811,6.65829124 15.0488155,6.65829124 14.8535534,6.85355339 L12.5,9.20710678 L10.1464466,6.85355339 C9.95118446,6.65829124 9.63461894,6.65829124 9.43935679,6.85355339 L7.85355339,8.43935679 C7.65829124,8.63461894 7.65829124,8.95118446 7.85355339,9.14644661 L10.2071068,11.5 L7.85355339,13.8535534 C7.65829124,14.0488155 7.65829124,14.3653811 7.85355339,14.5606432 L9.43935679,16.1464466 C9.63461894,16.3417088 9.95118446,16.3417088 10.1464466,16.1464466 L12.5,13.7928932 L14.8535534,16.1464466 C15.0488155,16.3417088 15.3653811,16.3417088 15.5606432,16.1464466 L17.1464466,14.5606432 C17.3417088,14.3653811 17.3417088,14.0488155 17.1464466,13.8535534 L14.7928932,11.5 Z" fill="#2563EB"></path>
        <circle stroke="#2563EB" stroke-width="2" cx="12" cy="12" r="10"></circle>
    </g>
</svg>
