<?xml version="1.0" encoding="UTF-8"?>
<svg width="24px" height="24px" viewBox="0 0 24 24" xmlns="http://www.w3.org/2000/svg">
    <path fill="#539E43" d="M12 1.85c-.27 0-.55.07-.78.2l-7.44 4.3c-.48.28-.78.8-.78 1.36v8.58c0 .56.3 1.08.78 1.36l1.95 1.12c.95.46 1.27.47 1.7.47 1.38 0 2.17-.84 2.17-2.3V7.7c0-.12-.1-.22-.22-.22h-.93c-.12 0-.21.1-.21.22v8.24c0 .66-.68 1.3-1.77.75l-2.05-1.2c-.08-.03-.13-.12-.13-.21V7.38c0-.1.05-.18.13-.23l7.4-4.27c.08-.05.17-.05.25 0l7.4 4.27c.08.05.13.13.13.23v8.57c0 .1-.05.18-.13.21l-7.4 4.26c-.08.05-.17.05-.25 0l-1.92-1.13c-.06-.04-.15-.04-.22 0-.6.34-.7.4-1.25.57-.14.04-.33.11.07.32l2.5 1.49c.24.14.5.2.78.2s.54-.06.78-.2l7.44-4.3c.48-.28.78-.8.78-1.36V7.7c0-.56-.3-1.08-.78-1.36l-7.44-4.3c-.23-.12-.5-.18-.78-.18zm2.34 7.44c-2.03 0-3.26.99-3.26 2.65 0 1.8 1.4 2.3 3.64 2.52 2.7.27 2.9.67 2.9 1.21 0 .94-.75 1.33-2.52 1.33-2.24 0-2.73-.56-2.9-1.67-.01-.12-.12-.2-.24-.2h-.95c-.12 0-.22.1-.22.22 0 1.33.73 2.92 4.3 2.92 2.57 0 4.03-1.03 4.03-2.78 0-1.76-1.19-2.23-3.67-2.55-2.5-.34-2.87-.51-2.87-1.1 0-.5.22-1.15 2.09-1.15 1.67 0 2.29.36 2.54 1.49.02.1.11.17.21.17h.96c.06 0 .12-.03.16-.07.04-.04.07-.1.05-.16-.26-1.56-1.18-2.28-3.92-2.28h-.04z"/>
</svg>
